<?xml version="1.0" encoding="UTF-8" standalone="no"?>
<!-- Created with Inkscape (http://www.inkscape.org/) -->

<svg
   width="257.74051mm"
   height="56.655708mm"
   viewBox="0 0 257.74051 56.655708"
   version="1.1"
   id="svg5"
   inkscape:version="1.1.2 (b8e25be833, 2022-02-05)"
   sodipodi:docname="Metro 2008.svg"
   xmlns:inkscape="http://www.inkscape.org/namespaces/inkscape"
   xmlns:sodipodi="http://sodipodi.sourceforge.net/DTD/sodipodi-0.dtd"
   xmlns="http://www.w3.org/2000/svg"
   xmlns:svg="http://www.w3.org/2000/svg">
  <sodipodi:namedview
     id="namedview7"
     pagecolor="#ffffff"
     bordercolor="#666666"
     borderopacity="1.0"
     inkscape:pageshadow="2"
     inkscape:pageopacity="0.0"
     inkscape:pagecheckerboard="0"
     inkscape:document-units="mm"
     showgrid="false"
     inkscape:zoom="0.45291836"
     inkscape:cx="835.69145"
     inkscape:cy="240.66147"
     inkscape:window-width="1920"
     inkscape:window-height="1017"
     inkscape:window-x="-8"
     inkscape:window-y="-8"
     inkscape:window-maximized="1"
     inkscape:current-layer="layer1" />
  <defs
     id="defs2" />
  <g
     inkscape:label="Layer 1"
     inkscape:groupmode="layer"
     id="layer1"
     transform="translate(57.977551,-82.117089)">
    <g
       id="g968"
       transform="matrix(2.8330605,0,0,2.8330605,-57.977551,82.117089)">
	<g
   id="g950">
		<path
   fill="#e42313"
   d="m 80.42,19.995 c -0.747,0 -1.454,-0.065 -2.114,-0.192 v 0 c -0.388,-0.072 -0.759,-0.167 -1.114,-0.281 v 0 c -0.96,-0.309 -1.798,-0.765 -2.485,-1.35 v 0 C 74.02,17.588 73.478,16.876 73.11,16.051 v 0 C 72.739,15.227 72.547,14.29 72.546,13.26 v 0 c 0,-0.474 0.042,-0.966 0.126,-1.477 v 0 c 0.225,-1.342 0.692,-2.525 1.348,-3.544 v 0 c 0.654,-1.021 1.493,-1.872 2.45,-2.56 v 0 c 1.913,-1.373 4.308,-2.074 6.683,-2.075 v 0 h 0.007 0.017 c 1.172,0 2.412,0.192 3.549,0.62 v 0 0 c 0.598,0.223 1.169,0.512 1.688,0.874 v 0 c 0.748,0.526 1.392,1.199 1.844,2.048 v 0 c 0.456,0.85 0.715,1.871 0.718,3.082 v 0 c 0,0.497 -0.045,1.024 -0.139,1.586 v 0 c -0.262,1.563 -0.819,2.859 -1.566,3.92 v 0 c -0.747,1.061 -1.683,1.885 -2.695,2.519 v 0 c -2.02,1.255 -4.349,1.736 -6.129,1.741 v 0 H 80.445 Z M 80.099,8.489 c -0.333,0.362 -0.622,0.813 -0.858,1.362 v 0 c -0.238,0.547 -0.425,1.192 -0.548,1.931 v 0 c -0.091,0.547 -0.134,1.03 -0.134,1.459 v 0 0.008 c 0.001,1.108 0.289,1.843 0.744,2.299 v 0 c 0.19,0.191 0.406,0.33 0.646,0.431 v 0 l -0.146,0.348 0.147,-0.348 c 0.332,0.142 0.709,0.203 1.098,0.203 v 0 h 0.009 0.02 c 0.488,0 0.938,-0.104 1.349,-0.301 v 0 c 0.407,-0.193 0.771,-0.482 1.086,-0.861 v 0 c 0.32,-0.381 0.59,-0.85 0.813,-1.403 v 0 c 0.221,-0.556 0.392,-1.196 0.514,-1.913 v 0 c 0.083,-0.505 0.128,-0.975 0.128,-1.406 v 0 c 0,-0.441 -0.046,-0.843 -0.142,-1.195 v 0 C 84.729,8.75 84.584,8.448 84.383,8.194 v 0 C 84.121,7.863 83.761,7.632 83.296,7.51 v 0 C 83.067,7.449 82.814,7.417 82.536,7.417 v 0 c -0.008,0 -0.012,0 -0.014,0 v 0 h -0.004 -0.004 -0.011 c -0.912,0.002 -1.748,0.354 -2.404,1.072 z"
   id="path948" />

	</g>

	<g
   id="g954">
		<path
   fill="#e42313"
   d="m 60.614,4.125 h 5.875 c 0,0 -0.241,1.329 -0.339,1.852 v 0 L 66.141,6.022 66.173,5.99 c 0.7,-0.702 1.556,-1.17 2.292,-1.484 v 0 C 69.203,4.193 69.82,4.038 70.054,3.987 v 0 c 0.275,-0.063 0.597,-0.108 0.935,-0.139 v 0 c 0.338,-0.03 0.69,-0.046 1.022,-0.046 v 0 c 0.331,0 0.644,0.016 0.9,0.044 v 0 l 0.437,0.049 -1.045,5.225 h -0.33 -0.027 L 71.923,9.117 C 71.637,9.082 71.326,9.066 71.006,9.066 v 0 c -0.454,10e-4 -0.917,0.031 -1.338,0.086 v 0 c -0.422,0.055 -0.802,0.137 -1.084,0.234 v 0 c -0.631,0.219 -1.16,0.457 -1.602,0.718 v 0 c -0.439,0.262 -0.794,0.548 -1.086,0.875 v 0 c -0.29,0.322 -0.514,0.682 -0.697,1.086 v 0 c -0.184,0.404 -0.324,0.855 -0.442,1.355 v 0 c -0.393,1.667 -1.229,6.125 -1.229,6.125 l -5.841,0.008 z"
   id="path952" />

	</g>

	<g
   id="g958">
		<path
   fill="#e42313"
   d="M 48.481,18.409 C 47.909,17.958 47.425,17.411 47.09,16.791 46.744,16.152 46.546,15.4 46.545,14.545 c 0,-0.4 0.043,-0.825 0.136,-1.273 L 47.91,7.797 h -2.155 l 0.678,-3.672 h 2.119 L 49.038,1.56 54.887,0 54.077,4.125 h 3.811 l -0.672,3.672 h -3.708 l -1.074,4.735 c -0.048,0.237 -0.072,0.474 -0.072,0.706 10e-4,0.326 0.044,0.646 0.131,0.939 0.443,1.521 1.777,1.641 3.128,1.465 l -0.682,3.909 c 0,0 -1.04,0.24 -2.41,0.24 h -0.006 c -1.391,0.042 -2.895,-0.478 -4.042,-1.382 z"
   id="path956" />

	</g>

	<g
   id="g962">
		<path
   fill="#e42313"
   d="M 33.452,19.846 C 33.253,19.817 33.054,19.784 32.86,19.745 v 0 c -0.513,-0.099 -1.004,-0.228 -1.458,-0.394 v 0 C 29.165,18.539 27.304,16.111 27.3,13.01 v 0 -0.007 c 0,-0.355 0.023,-0.718 0.075,-1.089 v 0 C 27.541,10.716 27.844,9.6 28.304,8.598 v 0 c 0.46,-1 1.077,-1.889 1.867,-2.625 v 0 c 0.789,-0.735 1.755,-1.325 2.91,-1.727 v 0 C 34.235,3.843 35.58,3.625 37.137,3.624 v 0 c 0.124,0 0.247,10e-4 0.372,0.004 v 0 c 0.772,0.017 1.563,0.157 2.316,0.417 v 0 c 0.055,0.018 0.104,0.036 0.149,0.053 v 0 c 0.804,0.294 1.565,0.724 2.228,1.285 v 0 c 0.655,0.563 1.214,1.252 1.605,2.071 v 0 c 0.395,0.821 0.619,1.77 0.62,2.839 v 0 c 0,0.646 -0.082,1.336 -0.261,2.072 v 0 l -0.075,0.307 H 43.775 43.754 L 32.63,12.628 32.629,12.641 c -0.004,0.062 -0.006,0.123 -0.006,0.185 v 0 c 0.002,0.87 0.415,1.76 1.162,2.434 v 0 c 0.436,0.394 0.984,0.714 1.627,0.911 v 0 c 0.458,0.143 0.966,0.223 1.517,0.223 v 0 c 0.15,0 0.303,-0.006 0.457,-0.017 v 0 c 1.504,-0.117 3.051,-0.288 4.753,-0.981 v 0 l 0.78,-0.318 -1.378,3.822 -0.146,0.069 c -1.306,0.623 -3.467,1.026 -5.651,1.029 v 0 H 35.712 C 34.947,20 34.182,19.95 33.452,19.846 Z M 39.288,9.62 39.289,9.609 C 39.311,9.43 39.324,9.258 39.324,9.095 v 0 -0.012 C 39.323,8.385 39.103,7.816 38.707,7.435 v 0 C 38.431,7.169 38.071,6.99 37.629,6.899 v 0 0 C 37.427,6.86 37.211,6.839 36.982,6.839 v 0 H 36.97 c -0.009,0 -0.016,0 -0.021,0 v 0 c -1.664,0.007 -2.996,1.026 -3.572,2.765 v 0 L 33.371,9.62 Z"
   id="path960" />

	</g>

	<g
   id="g966">
		<path
   fill="#e42313"
   d="M 8.902,19.561 11.111,9.567 C 11.133,9.463 11.143,9.369 11.143,9.28 v 0 -0.005 c 0,-0.318 -0.13,-0.61 -0.344,-0.807 v 0 C 10.71,8.385 10.608,8.316 10.49,8.262 v 0 C 10.323,8.185 10.127,8.141 9.912,8.141 v 0 H 9.913 C 9.065,8.148 8.278,8.761 8.1,9.557 v 0 L 5.854,19.561 H 0 L 2.051,10.015 C 2.235,9.155 2.489,8.32 2.843,7.545 v 0 C 3.195,6.771 3.651,6.06 4.238,5.458 v 0 C 4.822,4.86 5.542,4.359 6.429,4.014 v 0 C 7.316,3.669 8.364,3.479 9.614,3.476 v 0 c 0.245,0 0.502,0.007 0.765,0.023 v 0 c 0.313,0.02 0.614,0.058 0.897,0.112 v 0 c 1.452,0.27 2.563,0.997 3.397,1.969 v 0 l 0.009,0.011 0.01,-0.008 c 0.753,-0.587 1.664,-1.102 2.625,-1.475 v 0 c 0.961,-0.371 1.973,-0.604 2.93,-0.61 v 0 h 0.117 c 0.758,0 1.424,0.067 2.01,0.197 v 0 c 0.205,0.044 0.396,0.097 0.582,0.155 v 0 c 0.717,0.228 1.293,0.563 1.738,0.976 v 0 c 0.445,0.414 0.77,0.916 0.978,1.48 v 0 c 0.209,0.563 0.303,1.188 0.305,1.861 v 0 c 0,0.584 -0.073,1.201 -0.209,1.84 v 0 l -2.032,9.554 h -5.9 L 19.88,9.617 c 0.02,-0.094 0.031,-0.19 0.031,-0.28 v 0 -0.006 c 0,-0.316 -0.131,-0.608 -0.348,-0.809 v 0 C 19.492,8.454 19.412,8.397 19.314,8.348 v 0 C 19.135,8.253 18.918,8.198 18.679,8.198 v 0 h -10e-4 c -0.845,0.007 -1.63,0.618 -1.813,1.414 v 0 l -1.974,9.949 z"
   id="path964" />

	</g>

</g>
  </g>
</svg>
