<?xml version="1.0" encoding="UTF-8"?>
<svg id="logo" xmlns="http://www.w3.org/2000/svg" viewBox="0 0 760.58 336.06">
  <defs>
    <style>
      .cls-1 {
        fill: #fff;
      }
    </style>
  </defs>
  <path id="orbitz" class="cls-1" d="m298.82,187.43v30.75c0,6.75-5.47,12.22-12.22,12.22h-4.7c-6.75,0-12.22-5.47-12.22-12.22v-113.45c0-6.75,5.47-12.22,12.22-12.22h48.37c30.06,0,46.25,16.56,46.25,37.86,0,11.23-3.71,19.34-8.86,24.89-3.97,4.29-4.4,10.7-.89,15.38,3.84,5.12,6.85,13.33,6.85,26.66v6.81c0,4.4.02,9.09.24,13.5.35,6.97-5.23,12.79-12.2,12.79h-4.4c-6.33,0-11.59-4.83-12.17-11.13-.5-5.37-.63-11.98-.63-19.83v-2.02c0-15.08-3.81-22.21-26.03-22.21h-7.39c-6.75,0-12.22,5.47-12.22,12.22h0Zm0-48.17c0,6.75,5.47,12.22,12.22,12.22h12.78c16.32,0,22.62-6.21,22.62-17.74s-7.33-17.49-21.91-17.49h-13.49c-6.75,0-12.22,5.47-12.22,12.22v10.8h0Zm84.26-34.54c0-6.75,5.47-12.22,12.22-12.22h48.02c33.31,0,45.95,17.37,45.95,35.28,0,9-2.76,16.18-6.9,21.45-3.78,4.81-3.19,11.75,1.17,16.04,5.41,5.32,9.67,13.12,9.67,23.84,0,23.6-18.53,41.28-47.86,41.28h-50.06c-6.75,0-12.22-5.47-12.22-12.22v-113.45h0Zm56.82,42.17c14.16,0,20.02-6.36,20.02-16.04s-7.66-15.32-19.16-15.32h-16.19c-6.75,0-12.22,5.47-12.22,12.22v6.92c0,6.75,5.47,12.22,12.22,12.22h15.34,0Zm-27.56,48.25c0,6.75,5.47,12.22,12.22,12.22h14.68c16.11,0,23.41-6.74,23.41-19.24,0-11.11-7.17-18.2-23.58-18.2h-14.51c-6.75,0-12.22,5.47-12.22,12.22v13Zm118.95-90.42v113.45c0,6.75-5.47,12.22-12.22,12.22h-5.38c-6.75,0-12.22-5.47-12.22-12.22v-113.45c0-6.75,5.47-12.22,12.22-12.22h5.38c6.75,0,12.22,5.47,12.22,12.22Zm34.11,12.22h-17.46c-6.75,0-12.22-5.47-12.22-12.22h0c0-6.75,5.47-12.22,12.22-12.22h89.04c6.75,0,12.22,5.47,12.22,12.22h0c0,6.75-5.47,12.22-12.22,12.22h-17.3c-6.75,0-12.22,5.47-12.22,12.22v89.01c0,6.75-5.47,12.22-12.22,12.22h-5.4c-6.75,0-12.22-5.47-12.22-12.22v-89.01c0-6.75-5.47-12.22-12.22-12.22h0Zm86.49,112.31l56.34-82.8c6.58-9.67.91-24.28-9.42-24.28h-34.11c-6.75,0-12.22-6.64-12.22-14.83h0c0-8.19,5.47-14.83,12.22-14.83h81.76c6.75,0,12.22,6.64,12.22,14.83v9.23c0,3.43-.98,6.75-2.77,9.4l-54,80.02c-6.53,9.68-.86,24.23,9.45,24.23h37c7.48,0,13.21,8.09,12.08,17.07h0c-.91,7.24-6.04,12.59-12.08,12.59h-87.05c-6.75,0-16.06-1.64-16.06-9.83v-6.36c0-3.45,4.83-11.79,6.64-14.45h0ZM265.41,14.04C251.26-.13,231.83-3.58,207.12,3.71c-21.22,6.25-40.51,15.09-62.11,32.24-59.28,1.71-106.91,49.89-107.73,109.39-17.55,23.14-28.92,44.17-34.11,63.07-6.5,23.7-2.89,37.93,10.05,50.89,16.51,16.53,41.29,17.71,74.36,3.56,7.75-3.32,15.6-7.06,23.57-11.33,11.61,4.12,24.1,6.37,37.12,6.37,61.3,0,111-49.7,111-111,0-11.24-1.68-22.09-4.78-32.31,13.43-21.21,19.22-36.88,22.91-54.48,3.94-18.78-.05-34.14-11.97-46.07h-.02Zm-117.16,54.36c31.9,0,59.34,19.04,71.62,46.36-10.95,15.01-25.78,31.85-44.49,50.54-23.33,23.3-43.81,40.69-61.46,52.21-26.15-12.74-44.17-39.56-44.17-70.61,0-43.35,35.15-78.5,78.5-78.5ZM48.52,227.36c-8.99-9-12.75-22.99-4.85-43.21,6.86,19.27,18.9,36.09,34.44,48.77-12.72,2.03-23.99.04-29.59-5.56Zm103.55-2.06c13.4-10.09,27.14-21.97,41.26-36.07,12.13-12.12,23.19-24.24,33.18-36.37-2.96,39.31-34.84,70.54-74.44,72.44h0Zm28.13-184.73c3.12-1.4,6.29-2.68,9.53-3.84,15.12-5.41,32.82,1.53,39.7,8.42,7.53,7.54,14.19,20.23,9.01,37.02-14.13-19.65-34.51-34.48-58.24-41.6h0Zm89.06,208.33c0-6.08,4.92-11,11-11h445c6.08,0,11,4.92,11,11s-4.92,11-11,11h-445c-6.08,0-11-4.92-11-11Zm456,20h-445c-6.08,0-11,4.92-11,11s4.92,11,11,11h445c6.08,0,11-4.92,11-11s-4.92-11-11-11Zm-33,31h-412c-6.08,0-11,4.92-11,11s4.92,11,11,11h412c6.08,0,11-4.92,11-11s-4.92-11-11-11Zm-431.68-35h-15.02c-3.32,0-6.26-2.14-7.29-5.3l-4.64-14.29c-2.29-7.06-12.29-7.06-14.58,0l-4.64,14.29c-1.03,3.16-3.97,5.3-7.29,5.3h-15.02c-7.43,0-10.51,9.5-4.51,13.87l12.15,8.83c2.69,1.95,3.81,5.41,2.78,8.57l-4.64,14.29c-2.29,7.06,5.79,12.94,11.8,8.57l12.15-8.83c2.69-1.95,6.32-1.95,9.01,0l12.15,8.83c6.01,4.36,14.09-1.51,11.8-8.57l-4.64-14.29c-1.03-3.16.1-6.62,2.78-8.57l12.15-8.83c6.01-4.36,2.92-13.87-4.51-13.87h.01Z"/>
</svg>