<?xml version="1.0" encoding="UTF-8" standalone="no"?>
<svg
   xmlns:dc="http://purl.org/dc/elements/1.1/"
   xmlns:cc="http://creativecommons.org/ns#"
   xmlns:rdf="http://www.w3.org/1999/02/22-rdf-syntax-ns#"
   xmlns:svg="http://www.w3.org/2000/svg"
   xmlns="http://www.w3.org/2000/svg"
   xmlns:sodipodi="http://sodipodi.sourceforge.net/DTD/sodipodi-0.dtd"
   xmlns:inkscape="http://www.inkscape.org/namespaces/inkscape"
   width="1000"
   height="172.71967"
   viewBox="0 0 1000 172.71967"
   version="1.1"
   id="svg56"
   sodipodi:docname="superstore_v2.svg"
   inkscape:version="0.92.4 (5da689c313, 2019-01-14)">
  <metadata
     id="metadata62">
    <rdf:RDF>
      <cc:Work
         rdf:about="">
        <dc:format>image/svg+xml</dc:format>
        <dc:type
           rdf:resource="http://purl.org/dc/dcmitype/StillImage" />
        <dc:title></dc:title>
      </cc:Work>
    </rdf:RDF>
  </metadata>
  <defs
     id="defs60" />
  <sodipodi:namedview
     pagecolor="#ffffff"
     bordercolor="#111111"
     borderopacity="1"
     objecttolerance="10"
     gridtolerance="10"
     guidetolerance="10"
     inkscape:pageopacity="0"
     inkscape:pageshadow="2"
     inkscape:window-width="1920"
     inkscape:window-height="1017"
     id="namedview58"
     showgrid="false"
     fit-margin-top="0"
     fit-margin-left="0"
     fit-margin-right="0"
     fit-margin-bottom="0"
     inkscape:zoom="0.14568662"
     inkscape:cx="2352.0241"
     inkscape:cy="-1076.9996"
     inkscape:window-x="1912"
     inkscape:window-y="-8"
     inkscape:window-maximized="1"
     inkscape:current-layer="svg56" />
  <path
     style="fill:#003da5;fill-rule:nonzero;stroke-width:7.27669621"
     inkscape:connector-curvature="0"
     id="path2"
     d="m 202.7797,1.06968 h 29.55794 c 15.19374,0 28.05166,6.40349 28.05166,23.30726 0,10.14371 -3.93669,14.41513 -13.03984,17.44224 v 0.5312 c 1.23704,0.97507 2.76515,2.05203 4.11134,4.00218 l 14.64799,21.800983 H 237.88248 L 227.17118,46.6218 h -0.4366 v 21.531743 h -23.94033 z m 23.94033,29.71803 h 1.69547 c 4.01674,0 8.04803,-0.61852 8.04803,-5.60306 0,-5.16645 -3.67474,-5.78497 -7.85884,-5.78497 h -1.87738 z" />
  <path
     style="fill:#003da5;fill-rule:evenodd;stroke-width:7.27669621"
     inkscape:connector-curvature="0"
     id="path4"
     d="m 268.69929,1.06968 h 45.28288 v 18.33727 h -20.62943 v 6.38894 h 18.83936 v 17.44224 h -18.84664 v 6.585415 h 21.35711 V 68.16082 h -46.00328 z" />
  <path
     style="fill:#003da5;fill-rule:nonzero;stroke-width:7.27669621"
     inkscape:connector-curvature="0"
     id="path6"
     d="M 343.28543,68.16082 H 317.37311 L 340.78952,1.07696 h 27.06931 l 24.0131,67.091136 h -25.89049 l -2.23394,-8.3682 h -18.50464 l -1.96471,8.3682 z M 359.45425,43.87121 356.58723,32.0393 c -0.71312,-2.85247 -1.16427,-5.78497 -1.60087,-8.63016 h -0.89504 l -4.46789,20.46207 h 9.82354 z" />
  <path
     style="fill:#003da5;fill-rule:evenodd;stroke-width:7.27669621"
     inkscape:connector-curvature="0"
     id="path8"
     d="m 395.62671,1.06968 h 24.47153 v 45.5594 h 20.54939 v 21.524463 h -45.02092 z m 129.61979,27.2294 c -3.93669,-3.6529 -8.84846,-6.76733 -14.38603,-6.76733 -7.31308,0 -13.30908,5.79953 -13.30908,13.0835 0,7.38585 6.338,13.07622 13.65108,13.07622 5.63944,0 10.10006,-2.40131 14.04403,-6.22885 l -0.72039,25.097327 c -3.92942,1.862834 -13.03984,2.66327 -17.41314,2.66327 -19.2032,0 -34.21503,-14.859014 -34.21503,-33.989447 C 472.89794,15.65946 488.34637,0 508.09532,0 c 5.53029,0 11.25705,0.98236 16.43079,2.76515 l 0.72039,25.53393" />
  <path
     style="fill:#003da5;fill-rule:nonzero;stroke-width:7.27669621"
     inkscape:connector-curvature="0"
     id="path10"
     d="M 553.10897,68.16082 H 527.18938 L 550.61306,1.07696 h 27.05476 l 24.03493,67.091136 h -25.90504 l -2.2485,-8.3682 H 555.0664 l -1.96471,8.3682 z M 569.26323,43.87121 566.41805,32.0393 c -0.72767,-2.85247 -1.17883,-5.78497 -1.61543,-8.63016 h -0.90231 l -4.45334,20.46207 h 9.82354 z" />
  <path
     style="fill:#003da5;fill-rule:evenodd;stroke-width:7.27669621"
     inkscape:connector-curvature="0"
     id="path12"
     d="m 605.07913,1.06968 h 23.4819 l 21.97563,37.19119 h 0.71311 c -0.98963,-5.61033 -2.0593,-11.3953 -2.0593,-17.09296 V 1.06968 h 23.41641 V 68.153543 H 649.19047 L 627.65872,32.9125 h -0.69856 c 0.80771,4.62798 1.50628,8.97945 1.50628,13.44734 v 21.793703 h -23.40186 l 0.0145,-67.083863" />
  <path
     style="fill:#003da5;fill-rule:nonzero;stroke-width:7.27669621"
     inkscape:connector-curvature="0"
     id="path14"
     d="M 701.83009,68.16082 H 675.92505 L 699.33418,1.07696 h 27.06931 l 24.02038,67.091136 h -25.90504 l -2.24122,-8.3682 H 703.7948 l -1.96471,8.3682 z M 717.98436,43.87121 715.13189,32.0393 c -0.71312,-2.85247 -1.16427,-5.78497 -1.60815,-8.63016 h -0.89503 l -4.45334,20.46207 z M 754.34601,1.06968 h 24.91541 c 22.59414,0 39.93451,9.87448 39.93451,34.52792 0,19.923598 -14.13135,32.555943 -33.85847,32.555943 H 754.33873 V 1.06968 Z m 24.4788,46.97835 h 1.51356 c 8.12079,0 14.38603,-3.74022 14.38603,-12.54502 0,-9.4306 -5.44297,-13.43279 -14.38603,-13.43279 h -1.51356 z" />
  <path
     style="fill:#003da5;fill-rule:evenodd;stroke-width:7.27669621"
     inkscape:connector-curvature="0"
     id="path16"
     d="m 826.18883,1.06968 h 24.46425 v 67.09114 h -24.47153 z" />
  <path
     style="fill:#003da5;fill-rule:nonzero;stroke-width:7.27669621"
     inkscape:connector-curvature="0"
     id="path18"
     d="M 880.47299,68.16082 H 854.5825 L 877.99163,1.07696 h 27.06931 l 24.02765,67.091136 h -25.90504 l -2.24122,-8.3682 h -18.48281 l -1.97926,8.3682 z M 896.65636,43.87121 893.80389,32.0393 c -0.72039,-2.85247 -1.16427,-5.78497 -1.6227,-8.63016 h -0.88776 l -4.46789,20.46207 h 9.82354 z" />
  <path
     style="fill:#003da5;fill-rule:evenodd;stroke-width:7.27669621"
     inkscape:connector-curvature="0"
     id="path20"
     d="m 932.47953,1.06968 h 23.48918 l 21.97562,37.19119 h 0.70584 c -0.97507,-5.61033 -2.05203,-11.3953 -2.05203,-17.09296 V 1.06968 H 1000 V 68.153543 H 976.59814 L 955.07368,32.9125 h -0.71312 c 0.80044,4.62798 1.52083,8.97945 1.52083,13.44734 v 21.793703 h -23.41641 l 0.0145,-67.083863" />
  <path
     style="fill:#da291c;fill-rule:evenodd;stroke-width:7.27669621"
     inkscape:connector-curvature="0"
     id="path22"
     d="m 209.36511,140.06913 1.6227,1.28798 c 5.69765,4.38785 12.5523,7.97526 19.86538,7.97526 3.15081,0 8.1499,-1.2807 8.1499,-5.20284 0,-3.94397 -4.19137,-4.29325 -7.10205,-4.87539 l -6.38167,-1.16427 c -12.43587,-2.19028 -22.89976,-9.49609 -22.89976,-23.14717 0,-20.724031 18.94852,-32.308531 38.00619,-32.308531 9.99818,0 19.17409,2.44497 27.78242,7.647808 l -8.60105,22.339453 c -5.45752,-3.69656 -11.62089,-6.59996 -18.48281,-6.59996 -2.78698,0 -6.85465,1.04784 -6.85465,4.63526 0,3.2454 3.94397,3.70383 6.38894,4.28597 l 7.20393,1.62998 c 13.49099,3.00528 23.24904,10.1801 23.24904,24.99545 0,20.85501 -19.06494,31.14426 -38.01346,31.14426 -11.03875,0 -23.8239,-3.01255 -33.71293,-7.98981 l 9.77988,-24.65345 M 358.95216,84.031295 v 51.649985 c 0,25.46117 -16.03784,37.03839 -40.56759,37.03839 -24.51519,0 -40.55303,-11.57722 -40.55303,-37.03839 V 84.031295 h 31.83555 v 48.637435 c 0,6.8401 0.24013,12.85065 8.71748,12.85065 8.49918,0 8.73204,-6.01783 8.73204,-12.85065 V 84.031295 h 31.84282" />
  <path
     style="fill:#da291c;fill-rule:nonzero;stroke-width:7.27669621"
     inkscape:connector-curvature="0"
     id="path24"
     d="m 367.0584,84.038571 h 40.342 c 20.44752,0 35.56849,10.412953 35.56849,32.061119 0,17.82791 -11.15517,28.93943 -28.93942,28.93943 h -16.29252 v 26.27615 H 367.05112 V 84.038571 Z m 30.67855,39.024919 h 3.14353 c 5.5885,0 11.62816,-0.93141 11.62816,-7.99709 0,-6.84009 -6.50537,-7.16754 -11.73003,-7.16754 h -3.03439 v 15.16463 z" />
  <path
     style="fill:#da291c;fill-rule:evenodd;stroke-width:7.27669621"
     inkscape:connector-curvature="0"
     id="path26"
     d="m 450.33291,84.031295 h 58.94124 v 23.867565 h -26.85101 v 8.32454 h 24.52247 v 22.67419 h -24.52247 v 8.57922 h 27.77515 v 23.83846 h -59.86538 z" />
  <path
     style="fill:#da291c;fill-rule:nonzero;stroke-width:7.27669621"
     inkscape:connector-curvature="0"
     id="path28"
     d="m 518.38457,84.038571 h 38.47917 c 19.75623,0 36.52174,8.331818 36.52174,30.336549 0,13.19265 -5.13734,18.75204 -16.98381,22.68146 v 0.69856 c 1.62271,1.26615 3.59469,2.66327 5.34838,5.20284 l 19.06494,28.35001 h -36.73276 l -13.94943,-28.008 h -0.58214 v 28.01528 H 518.38457 V 84.031295 Z m 31.15882,38.668369 h 2.20484 c 5.23194,0 10.46389,-0.80044 10.46389,-7.29125 0,-6.7164 -4.76624,-7.51683 -10.23104,-7.51683 h -2.43769 z" />
  <path
     style="fill:#da291c;fill-rule:evenodd;stroke-width:7.27669621"
     inkscape:connector-curvature="0"
     id="path30"
     d="m 612.76333,140.06913 1.62998,1.28798 c 5.69037,4.38785 12.56685,7.97526 19.87993,7.97526 3.12898,0 8.12807,-1.2807 8.12807,-5.20284 0,-3.94397 -4.19138,-4.29325 -7.08023,-4.87539 l -6.40349,-1.16427 c -12.44315,-2.19028 -22.88521,-9.49609 -22.88521,-23.14717 0,-20.724031 18.93397,-32.308531 37.99891,-32.308531 10.00546,0 19.18137,2.44497 27.78243,7.647808 l -8.60106,22.339453 c -5.45752,-3.69656 -11.62088,-6.59996 -18.48281,-6.59996 -2.7797,0 -6.85465,1.04784 -6.85465,4.63526 0,3.2454 3.95853,3.70383 6.4035,4.28597 l 7.2112,1.62998 c 13.47645,3.00528 23.2345,10.1801 23.2345,24.99545 0,20.85501 -19.06495,31.14426 -37.99891,31.14426 -11.03875,0 -23.83118,-3.01255 -33.71294,-7.98981 l 9.75078,-24.65345 m 65.65763,-56.037835 h 66.95288 v 28.364565 l -17.56594,-0.80044 v 59.71985 h -31.83555 v -59.72713 l -17.55139,0.80772 z" />
  <path
     style="fill:#da291c;fill-rule:nonzero;stroke-width:7.27669621"
     inkscape:connector-curvature="0"
     id="path32"
     d="m 847.72785,127.92433 c 0,28.01528 -21.75004,44.78806 -48.47735,44.78806 -26.73458,0 -48.47735,-16.78006 -48.47735,-44.78806 0,-27.44043 21.84464,-45.290161 48.47735,-45.290161 26.61088,0 48.47007,17.849731 48.47007,45.290161 m -64.85719,0.44388 c 0,9.96179 6.7455,16.79461 16.38712,16.79461 9.64162,0 16.37984,-6.84009 16.37984,-16.79461 0,-9.26324 -6.26523,-17.01292 -16.37984,-17.01292 -10.10733,0 -16.38712,7.75696 -16.38712,17.01292 m 71.82099,-44.329639 h 38.47917 c 19.76351,0 36.49991,8.331818 36.49991,30.336549 0,13.19265 -5.11551,18.75204 -16.96925,22.68146 v 0.69856 c 1.62998,1.26615 3.59468,2.66327 5.36292,5.20284 l 19.06495,28.35001 h -36.74732 l -13.94215,-28.008 h -0.58214 v 28.01528 h -31.15881 z m 31.14426,38.668369 h 2.2194 c 5.23922,0 10.45661,-0.80044 10.45661,-7.29125 0,-6.7164 -4.76624,-7.51683 -10.23104,-7.51683 h -2.44497 z" />
  <path
     style="fill:#da291c;fill-rule:evenodd;stroke-width:7.27669621"
     inkscape:connector-curvature="0"
     id="path46"
     d="m 940.1419,84.031295 h 58.92668 v 23.867565 h -26.83645 v 8.32454 h 24.51519 v 22.67419 h -24.52247 v 8.57922 H 1000 v 23.83846 h -59.8581 z" />
  <path
     style="fill:#003da5;fill-rule:evenodd;stroke-width:7.27669621"
     inkscape:connector-curvature="0"
     id="path48"
     d="M 170.92232,1.08423 H 0 v 85.13735 c 0,46.9929 38.26087,85.10096 85.450246,85.10096 H 170.92232 V 1.08423" />
  <path
     style="fill:#da291c;fill-rule:evenodd;stroke-width:7.27669621"
     inkscape:connector-curvature="0"
     id="path50"
     d="m 120.15281,66.931058 14.29871,-1.811897 -3.42732,16.998362 5.46479,4.002183 -23.01619,21.269784 0.97508,9.16136 -21.262506,-1.78279 -0.123704,5.8068 0.349281,20.43297 -5.188284,0.0946 -5.406586,0.0873 0.77133,-20.97143 v -5.31199 l -21.640895,1.80462 1.695471,-9.35056 -23.61288,-20.593048 4.766236,-4.904493 -3.565581,-18.475532 15.244679,3.332727 3.25996,-6.709114 13.782063,13.17082 -4.686193,-28.96125 10.274695,3.11442 9.386939,-16.79461 8.98672,16.91832 9.707115,-2.88885 -4.47517,27.142078 13.97853,-11.730035 z" />
</svg>
