<?xml version="1.0" encoding="UTF-8"?>
<svg id="Layer_2" data-name="Layer 2" xmlns="http://www.w3.org/2000/svg" viewBox="0 0 509.76 273.98">
  <defs>
    <style>
      .cls-1 {
        fill: #dfd9ec;
        stroke: #6e548c;
      }

      .cls-1, .cls-2 {
        stroke-miterlimit: 10;
        stroke-width: 2px;
      }

      .cls-2 {
        fill: #fac5c7;
        stroke: #e06387;
      }
    </style>
  </defs>
  <g id="logo">
    <g id="junkie">
      <path id="e" class="cls-1" d="m459.36,106.65c-28.01,0-50.71,24.34-50.71,54.37s22.71,54.37,50.71,54.37c21.86,0,40.48-14.83,47.61-35.61,1.27-3.7-1.44-7.56-5.35-7.56h-6.26c-2.27,0-4.34,1.35-5.21,3.45-5.24,12.64-17.05,21.46-30.79,21.46-17.12,0-31.26-13.7-33.4-31.43-.2-1.65,1.13-3.09,2.79-3.09h73c4,0,7.01-6.64,7.01-10.64,0,0-4.25-45.33-49.4-45.33Zm0,18.26c12.34,0,23.12,7.13,28.99,17.74,1.16,2.11-.36,4.69-2.77,4.69h-52.44c-2.41,0-3.93-2.59-2.77-4.69,5.86-10.62,16.65-17.74,29-17.74Z"/>
      <path id="i" class="cls-1" d="m399.25,209.45v-97.46c0-2.9-2.51-5.26-5.62-5.26h-11.82c-3.1,0-5.62,2.35-5.62,5.26v95.11c0,3.23,2.8,8.2,6.26,8.2h10.54c3.45,0,6.26-2.62,6.26-5.86Z"/>
      <path id="k" class="cls-1" d="m286.5,108.94v104.17c0,2.14,3.46,3.88,7.73,3.88h9.13c4.27,0,7.73-1.74,7.73-3.88v-32.09s35.12,33.53,35.12,33.53c1.2,1.2,3.65,1.95,6.32,1.95h12.49c5.28,0,8.7-1.39,6.32-3.76l-53.28-52.99,52.72-48.33c2.59-2.37-.83-5.27-6.21-5.27h-14.62c-2.59,0-4.97.71-6.21,1.85l-32.66,29.94v-29.01c0-2.14-3.46-3.88-7.73-3.88h-9.13c-4.27,0-7.73,1.74-7.73,3.88Z"/>
      <path id="n" class="cls-1" d="m238.94,107.17h0c-5.92,0-11.51,1.27-16.48,3.51v-1.32c0-2.84-2.39-5.14-5.34-5.14h-10.12c-2.95,0-5.34,2.3-5.34,5.14v101.76c0,3.7,3.29,6.7,7.34,6.7h6.11c4.06,0,7.34-3,7.34-6.7v-64.81c0-8.31,7.38-15.05,16.48-15.05s16.48,6.74,16.48,15.05v64.81c0,3.7,3.29,6.7,7.34,6.7h6.11c4.06,0,7.34-3,7.34-6.7v-69.92c0-18.8-16.69-34.03-37.28-34.03Z"/>
      <path id="u" class="cls-1" d="m170.01,113.3v63.61c0,8.16-7.11,14.77-15.88,14.77h0c-8.77,0-15.88-6.61-15.88-14.77v-63.61c0-3.63-3.17-6.58-7.07-6.58h-5.88c-3.91,0-7.07,2.95-7.07,6.58v68.62c0,18.45,16.07,33.4,35.9,33.4h0c19.83,0,35.9-14.95,35.9-33.4v-68.62c0-3.63-3.17-6.58-7.07-6.58h-5.88c-3.91,0-7.07,2.95-7.07,6.58Z"/>
      <path id="j" class="cls-1" d="m96.28,106.82c-4.82.81-17.62-2.76-17.44,5.62,0,0-.04,83.47-.04,83.47,0,24.64,3.12,54.39-25.8,54.39-10.98,0-18.9-10.51-21-32.25,8.03,4.68,18.06.42,13.81-14.63,0,0-20.57-45.98-20.57-45.98-.55-1.23-2.3-1.24-2.85,0L1.71,202.82c-4.36,14.95,12.87,20.72,14.07,12.48-10.96,75.78,89.22,78.39,86.09-1.14,0,0,.04-101.73.04-101.73,0-3.1-2.51-5.62-5.62-5.62Z"/>
      <path id="horn_left" data-name="horn left" class="cls-1" d="m63.98,1.92c2.07,11.99,13.43,64.27,56.69,86.77.41.21.32.76-.14.86-7.72,1.57-48.03,8.71-55.83-11.74,0,0-12.68-31.35-1.74-75.89.12-.51.93-.51,1.02,0Z"/>
      <path id="horn_right" data-name="horn right" class="cls-1" d="m412.13,1.4c-1.71,12.05-11.59,64.67-55.63,88.53-.41.22-.31.77.17.85,8.06,1.32,50.12,7.18,57.47-13.51,0,0,12.01-31.74-.95-75.91-.15-.5-.98-.48-1.06.04Z"/>
    </g>
    <g id="pvc">
      <path id="c" class="cls-2" d="m337.39,50.98c-2.81-.67-5.72.78-6.5,3.26-2.88,9.15-10.41,15.67-19.25,15.67-11.32,0-20.5-10.72-20.5-23.93s9.18-24.14,20.5-23.93,12.43,2.82,15.23,5.57c4.59,4.5,10.35.53,10.35.53,3.62-2.22,4.81-3.67,3.04-6.49-6.44-10.3-17.51-15.42-29.28-15.42-19.56,0-34.76,16.92-34.76,39.75s15.86,41.34,35.42,41.34c16.1,0,29.67-12.54,33.98-29.7.62-2.46-1.03-4.93-3.79-5.58l-4.44-1.06Z"/>
      <path id="v" class="cls-2" d="m244.73,83.9c1.63,0,3.18-.58,4.16-1.59s31.85-63.66,31.85-63.66c1.12-2.3-.04-4.98-2.61-5.99l-5.34-2.1c-2.56-1.01-5.55.04-6.68,2.34l-21.74,44.48c-.74,1.52-3.5,1.48-4.17-.06l-19.49-44.78c-1.02-2.34-3.96-3.5-6.56-2.58l-5.43,1.9c-2.61.91-3.9,3.55-2.88,5.89,0,0,27.56,62.99,28.61,64.06,1.29,1.32,2.69,2.09,4.82,2.09h5.46Z"/>
      <path id="p" class="cls-2" d="m147.44,81.04c0,2.45,2.18,6.22,4.87,6.22,3.69-.38,13.14,1.75,13.08-4.44,0,0,0-26.38,0-26.38,47.62,7.9,53.04-47.92,15.17-51.54-12.51-.75-26.64-.28-28.75,0-2.87.38-4.37.2-3.94,8.63l-.43,67.51Zm31.7-39.26c-10.4-.25-11.35,1.28-13.75-2.56v-17.13c1.36-2.75-1.08-2.92,13.75-2.79s14.34,22.2,0,22.48Z"/>
    </g>
  </g>
</svg>